{
    "asset" : {
        "generator" : "Khronos glTF Blender I/O v3.2.40",
        "version" : "2.0"
    },
    "scene" : 0,
    "scenes" : [
        {
            "name" : "Scene",
            "nodes" : [
                0
            ]
        }
    ],
    "nodes" : [
        {
            "mesh" : 0,
            "name" : "Curve.046",
            "scale" : [
                18.66984748840332,
                18.66984748840332,
                18.66984748840332
            ]
        }
    ],
    "materials" : [
        {
            "doubleSided" : true,
            "name" : "SVGMat.046",
            "pbrMetallicRoughness" : {
                "baseColorFactor" : [
                    0.08228270709514618,
                    0.07227185368537903,
                    0.07227185368537903,
                    1
                ],
                "metallicFactor" : 0,
                "roughnessFactor" : 0.4000000059604645
            }
        }
    ],
    "meshes" : [
        {
            "name" : "Curve.046",
            "primitives" : [
                {
                    "attributes" : {
                        "POSITION" : 0,
                        "NORMAL" : 1,
                        "TEXCOORD_0" : 2
                    },
                    "indices" : 3,
                    "material" : 0
                }
            ]
        }
    ],
    "accessors" : [
        {
            "bufferView" : 0,
            "componentType" : 5126,
            "count" : 10208,
            "max" : [
                0.19080974161624908,
                0,
                -0.01770336553454399
            ],
            "min" : [
                0.009345145896077156,
                -0.01000010222196579,
                -0.06531259417533875
            ],
            "type" : "VEC3"
        },
        {
            "bufferView" : 1,
            "componentType" : 5126,
            "count" : 10208,
            "type" : "VEC3"
        },
        {
            "bufferView" : 2,
            "componentType" : 5126,
            "count" : 10208,
            "type" : "VEC2"
        },
        {
            "bufferView" : 3,
            "componentType" : 5123,
            "count" : 12054,
            "type" : "SCALAR"
        }
    ],
    "bufferViews" : [
        {
            "buffer" : 0,
            "byteLength" : 122496,
            "byteOffset" : 0
        },
        {
            "buffer" : 0,
            "byteLength" : 122496,
            "byteOffset" : 122496
        },
        {
            "buffer" : 0,
            "byteLength" : 81664,
            "byteOffset" : 244992
        },
        {
            "buffer" : 0,
            "byteLength" : 24108,
            "byteOffset" : 326656
        }
    ],
    "buffers" : [
        {
            "byteLength" : 350764,
            "uri" : "Voron1.bin"
        }
    ]
}
